HIERARCHY
ROOT hip
{
  OFFSET 0 0 0
  CHANNELS 6 Xposition Yposition Zposition Zrotation Yrotation Xrotation
  JOINT abdomen
  {
    OFFSET 0 20.6881 -0.73152
    CHANNELS 3 Zrotation Xrotation Yrotation
    JOINT chest
    {
      OFFSET 0 11.7043 -0.48768
      CHANNELS 3 Zrotation Xrotation Yrotation
      JOINT neck
      {
        OFFSET 0 22.1894 -2.19456
        CHANNELS 3 Zrotation Xrotation Yrotation
        JOINT head
        {
          OFFSET -0.24384 7.07133 1.2192
          CHANNELS 3 Zrotation Xrotation Yrotation
          JOINT leftEye
          {
            OFFSET 4.14528 8.04674 8.04672
            CHANNELS 3 Zrotation Xrotation Yrotation
            End Site
            {
              OFFSET 1 0 0
            }
          }
          JOINT rightEye
          {
            OFFSET -3.6576 8.04674 8.04672
            CHANNELS 3 Zrotation Xrotation Yrotation
            End Site
            {
              OFFSET 1 0 0
            }
          }
        }
      }
      JOINT rCollar
      {
        OFFSET -2.68224 19.2634 -4.8768
        CHANNELS 3 Zrotation Xrotation Yrotation
        JOINT rShldr
        {
          OFFSET -8.77824 -1.95073 1.46304
          CHANNELS 3 Zrotation Xrotation Yrotation
          JOINT rForeArm
          {
            OFFSET -28.1742 -1.7115 0.48768
            CHANNELS 3 Zrotation Xrotation Yrotation
            JOINT rHand
            {
              OFFSET -22.5879 0.773209 7.07136
              CHANNELS 3 Zrotation Xrotation Yrotation
              JOINT rThumb1
              {
                OFFSET -1.2192 -0.487915 3.41376
                CHANNELS 3 Zrotation Xrotation Yrotation
                JOINT rThumb2
                {
                  OFFSET -3.37035 -0.52449 3.41376
                  CHANNELS 3 Zrotation Xrotation Yrotation
                  End Site
                  {
                    OFFSET -1.78271 -1.18214 1.43049
                  }
                }
              }
              JOINT rIndex1
              {
                OFFSET -7.75947 0.938293 5.60832
                CHANNELS 3 Zrotation Xrotation Yrotation
                JOINT rIndex2
                {
                  OFFSET -2.54057 -0.884171 1.56538
                  CHANNELS 3 Zrotation Xrotation Yrotation
                  End Site
                  {
                    OFFSET -1.62519 -0.234802 1.16502
                  }
                }
              }
              JOINT rMid1
              {
                OFFSET -8.24714 1.18213 3.41376
                CHANNELS 3 Zrotation Xrotation Yrotation
                JOINT rMid2
                {
                  OFFSET -3.10165 -0.590103 1.0647
                  CHANNELS 3 Zrotation Xrotation Yrotation
                  End Site
                  {
                    OFFSET -2.48547 -0.328903 0.83742
                  }
                }
              }
              JOINT rRing1
              {
                OFFSET -8.82822 0.546677 1.51678
                CHANNELS 3 Zrotation Xrotation Yrotation
                JOINT rRing2
                {
                  OFFSET -2.60934 -0.819778 -0.0198488
                  CHANNELS 3 Zrotation Xrotation Yrotation
                  End Site
                  {
                    OFFSET -2.33842 -0.294052 0.168128
                  }
                }
              }
              JOINT rPinky1
              {
                OFFSET -8.27202 -0.0477905 -0.4584
                CHANNELS 3 Zrotation Xrotation Yrotation
                JOINT rPinky2
                {
                  OFFSET -1.82734 -0.647385 -0.700984
                  CHANNELS 3 Zrotation Xrotation Yrotation
                  End Site
                  {
                    OFFSET -1.69225 -0.51767 -0.607171
                  }
                }
              }
            }
          }
        }
      }
      JOINT lCollar
      {
        OFFSET 2.68224 19.2634 -4.8768
        CHANNELS 3 Zrotation Xrotation Yrotation
        JOINT lShldr
        {
          OFFSET 8.77824 -1.95073 1.46304
          CHANNELS 3 Zrotation Xrotation Yrotation
          JOINT lForeArm
          {
            OFFSET 28.1742 -1.7115 0.48768
            CHANNELS 3 Zrotation Xrotation Yrotation
            JOINT lHand
            {
              OFFSET 22.5879 0.773209 7.07136
              CHANNELS 3 Zrotation Xrotation Yrotation
              JOINT lThumb1
              {
                OFFSET 1.2192 -0.487915 3.41376
                CHANNELS 3 Zrotation Xrotation Yrotation
                JOINT lThumb2
                {
                  OFFSET 3.37035 -0.52449 3.41376
                  CHANNELS 3 Zrotation Xrotation Yrotation
                  End Site
                  {
                    OFFSET 1.78271 -1.18214 1.43049
                  }
                }
              }
              JOINT lIndex1
              {
                OFFSET 7.75947 0.938293 5.60832
                CHANNELS 3 Zrotation Xrotation Yrotation
                JOINT lIndex2
                {
                  OFFSET 2.54057 -0.884171 1.56538
                  CHANNELS 3 Zrotation Xrotation Yrotation
                  End Site
                  {
                    OFFSET 1.62519 -0.234802 1.16502
                  }
                }
              }
              JOINT lMid1
              {
                OFFSET 8.24714 1.18213 3.41376
                CHANNELS 3 Zrotation Xrotation Yrotation
                JOINT lMid2
                {
                  OFFSET 3.10165 -0.590103 1.0647
                  CHANNELS 3 Zrotation Xrotation Yrotation
                  End Site
                  {
                    OFFSET 2.48547 -0.328903 0.83742
                  }
                }
              }
              JOINT lRing1
              {
                OFFSET 8.82822 0.546677 1.51678
                CHANNELS 3 Zrotation Xrotation Yrotation
                JOINT lRing2
                {
                  OFFSET 2.60934 -0.819778 -0.0198488
                  CHANNELS 3 Zrotation Xrotation Yrotation
                  End Site
                  {
                    OFFSET 2.33842 -0.294052 0.168128
                  }
                }
              }
              JOINT lPinky1
              {
                OFFSET 8.27202 -0.0477905 -0.4584
                CHANNELS 3 Zrotation Xrotation Yrotation
                JOINT lPinky2
                {
                  OFFSET 1.82734 -0.647385 -0.700984
                  CHANNELS 3 Zrotation Xrotation Yrotation
                  End Site
                  {
                    OFFSET 1.69225 -0.51767 -0.607171
                  }
                }
              }
            }
          }
        }
      }
    }
  }
  JOINT rButtock
  {
    OFFSET -8.77824 4.35084 1.2192
    CHANNELS 3 Zrotation Xrotation Yrotation
    JOINT rThigh
    {
      OFFSET 0 -1.70687 -2.19456
      CHANNELS 3 Zrotation Xrotation Yrotation
      JOINT rShin
      {
        OFFSET 0 -36.8199 0.73152
        CHANNELS 3 Zrotation Xrotation Yrotation
        JOINT rFoot
        {
          OFFSET 0.73152 -45.1104 -5.12064
          CHANNELS 3 Zrotation Xrotation Yrotation
          End Site
          {
            OFFSET -1.1221 -3.69964 12.103
          }
        }
      }
    }
  }
  JOINT lButtock
  {
    OFFSET 8.77824 4.35084 1.2192
    CHANNELS 3 Zrotation Xrotation Yrotation
    JOINT lThigh
    {
      OFFSET 0 -1.70687 -2.19456
      CHANNELS 3 Zrotation Xrotation Yrotation
      JOINT lShin
      {
        OFFSET 0 -36.8199 0.73152
        CHANNELS 3 Zrotation Xrotation Yrotation
        JOINT lFoot
        {
          OFFSET -0.73152 -45.1104 -5.12064
          CHANNELS 3 Zrotation Xrotation Yrotation
          End Site
          {
            OFFSET 1.1221 -3.69964 12.103
          }
        }
      }
    }
  }
}
MOTION
Frames:	4
Frame Time:	0.00833333
6.80706 81.3393 15.2863 -4.8024 3.0608 0.3548 7.58007 4.41717 28.1768 -4.38215 -0.855791 8.00757 -1.71536 3.66775 -6.55105 -1.57476 -7.23925 -12.5509 -0.0 0.0 0.0 -0.0 0.0 0.0 -4.52122e-15 -1.47101e-14 -2.285e-13 50.1117 7.94335 30.4171 -21.5285 -15.0653 42.5329 -0.589914 -21.2854 -3.1387 1.39455e-09 9.69344e-09 -9.97002e-10 2.42455e-09 1.6684e-08 -1.70593e-09 1.39455e-09 9.69344e-09 -9.97022e-10 7.73091 5.47488 0.417314 1.39455e-09 9.69346e-09 -9.97008e-10 2.90554 0.965183 0.102902 1.39456e-09 9.69343e-09 -9.97007e-10 10.2786 0.731801 0.0259123 1.39454e-09 9.69343e-09 -9.97003e-10 2.22167 -0.733487 -0.20892 -4.57658e-15 -1.47104e-14 -2.2873e-13 -50.0378 -12.45 21.4967 20.1662 -13.2222 -39.0853 0.240183 -13.8226 1.98161 -9.57146e-10 -3.5482e-10 -1.39336e-09 -1.63325e-09 -6.45885e-10 -2.42731e-09 -9.57162e-10 -3.54814e-10 -1.39335e-09 -7.73091 5.47488 -0.417314 -9.57147e-10 -3.54828e-10 -1.39336e-09 -2.90554 0.965183 -0.102902 -9.57151e-10 -3.54825e-10 -1.39336e-09 -10.2786 0.731801 -0.0259123 -9.57141e-10 -3.54825e-10 -1.39337e-09 -2.22167 -0.733487 0.20892 -2.03217e-16 0.0 -3.88251e-19 6.47627 15.6895 -1.40341 -0.0917297 20.6964 0.344564 -2.02498 0.781904 -25.7705 2.03217e-16 0.0 3.88251e-19 6.34233 -36.6393 -2.72125 0.236869 31.2665 -0.140401 0.584428 3.63547 5.8156
7.12736 81.3195 16.1862 -4.4608 3.4854 0.3079 7.08719 4.5284 28.3316 -4.42729 -0.840908 8.0455 -1.88144 3.64829 -6.78001 -1.35469 -7.3055 -12.9535 -0.0 0.0 0.0 -0.0 0.0 0.0 3.15013e-14 -3.36326e-14 -3.79792e-13 50.3617 7.15889 31.1108 -21.365 -14.8322 42.1056 -0.600774 -21.4686 -3.16843 2.5673e-09 1.68698e-08 -1.67625e-09 4.46196e-09 2.90109e-08 -2.86433e-09 2.56731e-09 1.68699e-08 -1.67628e-09 7.73091 5.47488 0.417314 2.5673e-09 1.68699e-08 -1.67626e-09 2.90554 0.965183 0.102902 2.56731e-09 1.68698e-08 -1.67626e-09 10.2786 0.731801 0.0259123 2.5673e-09 1.68698e-08 -1.67626e-09 2.22167 -0.733487 -0.20892 3.14444e-14 -3.36311e-14 -3.8007e-13 -49.529 -13.1598 22.3531 20.2041 -13.2706 -39.1778 0.244484 -13.9424 1.9995 -1.51201e-09 -5.67415e-10 -2.26918e-09 -2.58009e-09 -1.0312e-09 -3.95248e-09 -1.51203e-09 -5.67405e-10 -2.26916e-09 -7.73091 5.47488 -0.417314 -1.51201e-09 -5.6742e-10 -2.26918e-09 -2.90554 0.965183 -0.102902 -1.51201e-09 -5.67418e-10 -2.26918e-09 -10.2786 0.731801 -0.0259123 -1.51201e-09 -5.67418e-10 -2.26919e-09 -2.22167 -0.733487 0.20892 -2.03217e-16 0.0 -3.88251e-19 6.12882 15.2482 -2.42949 -0.105371 22.2281 0.35958 -1.81713 1.34264 -26.0809 2.03217e-16 0.0 3.88251e-19 5.82535 -36.5751 -1.96657 0.250372 32.0455 -0.137135 0.597607 3.47607 5.13331
7.43328 81.3109 17.0781 -4.2309 3.9582 0.2614 6.75689 4.63149 28.4734 -4.47937 -0.797651 8.08207 -2.05141 3.64214 -7.01083 -1.16208 -7.36586 -13.3604 -0.0 0.0 0.0 -0.0 0.0 0.0 4.98998e-14 -4.25411e-14 -4.29226e-13 50.5887 6.41093 31.74 -21.2032 -14.6047 41.6876 -0.611466 -21.6471 -3.19748 2.9357e-09 1.90035e-08 -1.85377e-09 5.10148e-09 3.26728e-08 -3.16626e-09 2.9357e-09 1.90035e-08 -1.8538e-09 7.73091 5.47488 0.417314 2.9357e-09 1.90035e-08 -1.85378e-09 2.90554 0.965183 0.102902 2.93571e-09 1.90035e-08 -1.85378e-09 10.2786 0.731801 0.0259123 2.9357e-09 1.90035e-08 -1.85378e-09 2.22167 -0.733487 -0.20892 4.98437e-14 -4.25386e-14 -4.29524e-13 -49.1186 -13.7893 23.105 20.2388 -13.3151 -39.2628 0.247654 -14.0295 2.0125 -1.63163e-09 -6.42071e-10 -2.53275e-09 -2.78329e-09 -1.16422e-09 -4.41094e-09 -1.63165e-09 -6.42059e-10 -2.53273e-09 -7.73091 5.47488 -0.417314 -1.63163e-09 -6.42074e-10 -2.53274e-09 -2.90554 0.965183 -0.102902 -1.63164e-09 -6.42072e-10 -2.53274e-09 -10.2786 0.731801 -0.0259123 -1.63163e-09 -6.42072e-10 -2.53275e-09 -2.22167 -0.733487 0.20892 -2.03217e-16 0.0 -3.88251e-19 5.86484 14.8182 -3.43969 -0.12057 23.6673 0.368502 -1.53617 2.03636 -26.4066 2.03217e-16 0.0 3.88251e-19 5.35444 -36.4707 -1.41561 0.263575 32.7856 -0.133585 0.613863 3.28137 4.62337
7.72607 81.3155 17.9641 -4.1038 4.4598 0.2066 6.65764 4.72974 28.6013 -4.55099 -0.708774 8.11831 -2.2386 3.64874 -7.24948 -0.989248 -7.42669 -13.7799 -0.0 0.0 0.0 -0.0 0.0 0.0 4.29533e-14 -3.82828e-14 -3.16354e-13 50.7827 5.68255 32.2925 -21.0458 -14.3865 41.2846 -0.622535 -21.8308 -3.22744 1.97922e-09 1.27938e-08 -1.19348e-09 3.4383e-09 2.19972e-08 -2.03778e-09 1.97922e-09 1.27938e-08 -1.19351e-09 7.73091 5.47488 0.417314 1.97922e-09 1.27939e-08 -1.19349e-09 2.90554 0.965183 0.102902 1.97923e-09 1.27938e-08 -1.19349e-09 10.2786 0.731801 0.0259123 1.97922e-09 1.27938e-08 -1.19349e-09 2.22167 -0.733487 -0.20892 4.29051e-14 -3.82803e-14 -3.16633e-13 -48.8263 -14.3387 23.7253 20.2684 -13.353 -39.3358 0.24919 -14.0713 2.01875 -1.01478e-09 -5.16903e-10 -1.80411e-09 -1.72757e-09 -9.28842e-10 -3.14036e-09 -1.01479e-09 -5.16891e-10 -1.80409e-09 -7.73091 5.47488 -0.417314 -1.01478e-09 -5.16904e-10 -1.80411e-09 -2.90554 0.965183 -0.102902 -1.01479e-09 -5.16902e-10 -1.80411e-09 -10.2786 0.731801 -0.0259123 -1.01478e-09 -5.16903e-10 -1.80412e-09 -2.22167 -0.733487 0.20892 -2.03217e-16 0.0 -3.88251e-19 5.73852 14.4059 -4.45248 -0.136292 24.9908 0.369748 -1.16581 2.8872 -26.7475 2.03217e-16 0.0 3.88251e-19 4.95451 -36.3428 -1.12972 0.276956 33.5071 -0.129964 0.635656 3.04415 4.32164
